# xmcd
#
# Track frame offsets:
#	150
#	16454
#	26254
#	37128
#	49442
#	61363
#	78978
#	94348
#	107377
#	117502
#	129598
#	143721
#
# Disc length: 2249 seconds
#
# Revision: 1
# Processed by: cddbd v1.5.2PL0 Copyright (c) Steve Scherf et al.
# Submitted via: audiograbber 1.83.01
#
DISCID=a208c70c
DTITLE=Baby Woodrose - Baby Woodrose
DYEAR=2009
DGENRE=rock
TTITLE0=Fortune Teller
TTITLE1=Take It
TTITLE2=Open Up Your Heart
TTITLE3=Emily
TTITLE4=Laughing Stock
TTITLE5=Countdown To Breakdown
TTITLE6=Changes Everywhere
TTITLE7=Hollow Grove
TTITLE8=No Mas
TTITLE9=Mikita
TTITLE10=Scorpio
TTITLE11=Secret Of The Twisted Flower
EXTD=
EXTT0=
EXTT1=
EXTT2=
EXTT3=
EXTT4=
EXTT5=
EXTT6=
EXTT7=
EXTT8=
EXTT9=
EXTT10=
EXTT11=
PLAYORDER=
